<svg width="36" height="36" viewBox="0 0 36 36" fill="none" xmlns="http://www.w3.org/2000/svg" xmlns:xlink="http://www.w3.org/1999/xlink">
<path d="M32,0C33.061,0 34.078,0.421 34.828,1.172C35.579,1.922 36,2.939 36,4L36,32C36,33.061 35.579,34.078 34.828,34.828C34.078,35.579 33.061,36 32,36L4,36C2.939,36 1.922,35.579 1.172,34.828C0.421,34.078 0,33.061 0,32L0,4C0,2.939 0.421,1.922 1.172,1.172C1.922,0.421 2.939,0 4,0L32,0ZM31,31L31,20.4C31,18.671 30.313,17.012 29.09,15.79C27.868,14.567 26.209,13.88 24.48,13.88C22.78,13.88 20.8,14.92 19.84,16.48L19.84,14.26L14.26,14.26L14.26,31L19.84,31L19.84,21.14C19.84,19.6 21.08,18.34 22.62,18.34C23.363,18.34 24.075,18.635 24.6,19.16C25.125,19.685 25.42,20.397 25.42,21.14L25.42,31L31,31ZM7.76,11.12C8.651,11.12 9.506,10.766 10.136,10.136C10.766,9.506 11.12,8.651 11.12,7.76C11.12,5.9 9.62,4.38 7.76,4.38C6.864,4.38 6.004,4.736 5.37,5.37C4.736,6.004 4.38,6.864 4.38,7.76C4.38,9.62 5.9,11.12 7.76,11.12ZM10.54,31L10.54,14.26L5,14.26L5,31L10.54,31Z" fill="#828282"/>
</svg>
