<svg width="40" height="40" viewBox="0 0 40 40" fill="none" xmlns="http://www.w3.org/2000/svg" xmlns:xlink="http://www.w3.org/1999/xlink">
<path d="M11.6,0L28.4,0C34.8,0 40,5.2 40,11.6L40,28.4C40,31.477 38.778,34.427 36.602,36.602C34.427,38.778 31.477,40 28.4,40L11.6,40C5.2,40 0,34.8 0,28.4L0,11.6C0,8.523 1.222,5.573 3.398,3.398C5.573,1.222 8.523,0 11.6,0M11.2,4C9.29,4 7.459,4.759 6.109,6.109C4.759,7.459 4,9.29 4,11.2L4,28.8C4,32.78 7.22,36 11.2,36L28.8,36C30.71,36 32.541,35.241 33.891,33.891C35.241,32.541 36,30.71 36,28.8L36,11.2C36,7.22 32.78,4 28.8,4L11.2,4ZM30.5,7C31.163,7 31.799,7.263 32.268,7.732C32.737,8.201 33,8.837 33,9.5C33,10.163 32.737,10.799 32.268,11.268C31.799,11.737 31.163,12 30.5,12C29.837,12 29.201,11.737 28.732,11.268C28.263,10.799 28,10.163 28,9.5C28,8.837 28.263,8.201 28.732,7.732C29.201,7.263 29.837,7 30.5,7ZM20,10C22.652,10 25.196,11.054 27.071,12.929C28.946,14.804 30,17.348 30,20C30,22.652 28.946,25.196 27.071,27.071C25.196,28.946 22.652,30 20,30C17.348,30 14.804,28.946 12.929,27.071C11.054,25.196 10,22.652 10,20C10,17.348 11.054,14.804 12.929,12.929C14.804,11.054 17.348,10 20,10M20,14C18.409,14 16.883,14.632 15.757,15.757C14.632,16.883 14,18.409 14,20C14,21.591 14.632,23.117 15.757,24.243C16.883,25.368 18.409,26 20,26C21.591,26 23.117,25.368 24.243,24.243C25.368,23.117 26,21.591 26,20C26,18.409 25.368,16.883 24.243,15.757C23.117,14.632 21.591,14 20,14Z" fill="#828282"/>
</svg>
