<svg width="40" height="40" viewBox="0 0 40 40" fill="none" xmlns="http://www.w3.org/2000/svg" xmlns:xlink="http://www.w3.org/1999/xlink">
<path d="M20,0.08C9,0.08 0,9.06 0,20.12C0,30.12 7.32,38.42 16.88,39.92L16.88,25.92L11.8,25.92L11.8,20.12L16.88,20.12L16.88,15.7C16.88,10.68 19.86,7.92 24.44,7.92C26.62,7.92 28.9,8.3 28.9,8.3L28.9,13.24L26.38,13.24C23.9,13.24 23.12,14.78 23.12,16.36L23.12,20.12L28.68,20.12L27.78,25.92L23.12,25.92L23.12,39.92C27.833,39.176 32.124,36.771 35.22,33.14C38.315,29.509 40.011,24.891 40,20.12C40,9.06 31,0.08 20,0.08Z" fill="#828282"/>
</svg>
